<svg width="256" height="256" viewBox="0 0 256 256" fill="none" xmlns="http://www.w3.org/2000/svg">
<path d="M249.385 200.957C260.635 186.81 255.75 160.118 247.937 115.697C240.759 74.889 231.129 27.4763 174.268 30.1046C144.198 31.4944 119.179 37.0074 98.366 45.2855C98.366 45.2855 147.479 30.1046 169.803 55.0239C192.127 79.9429 169.803 116.435 169.803 155.784C169.803 200.206 191.011 222.53 191.011 222.53C220.951 218.401 238.393 214.779 249.385 200.957Z" fill="url(#paint0_linear_919_109)"/>
<path d="M12.9086 206.734C28.8256 221.081 68.335 223.175 90.0528 224.116C124.543 225.609 160.623 226.721 191.011 222.53C191.011 222.53 169.803 200.206 169.803 155.784C169.803 116.435 192.127 79.9429 169.803 55.0239C147.479 30.1046 98.366 45.2855 98.366 45.2855C55.715 62.2485 30.7193 90.8221 16.0923 119.321C-6.6571 163.646 -3.00846 192.388 12.9086 206.734Z" fill="url(#paint1_linear_919_109)"/>
<path d="M211.212 172.554C224.095 172.554 234.539 162.11 234.539 149.227C234.539 136.344 224.095 125.9 211.212 125.9C198.329 125.9 187.886 136.344 187.886 149.227C187.886 162.11 198.329 172.554 211.212 172.554Z" fill="#192437"/>
<path d="M50.9198 111.616C51.4071 132.081 55.8354 136.624 62.9866 138.35C70.1379 140.077 78.0042 131.574 91.5325 134.209C105.061 136.845 116.431 169.271 137.864 124.287" stroke="#192437" stroke-width="12" stroke-linecap="round"/>
<path d="M131.477 40.7157C129.524 40.6899 127.592 40.7218 125.709 40.8069C123.825 40.8921 121.983 41.0296 120.205 41.1987C116.653 41.5364 113.345 42.0183 110.437 42.529C108.299 42.9048 106.657 43.2633 105.006 43.6316C101.039 44.5166 98.3637 45.29 98.3637 45.29C90.2385 48.5215 82.7603 52.1762 75.8662 56.1697C89.1213 53.3004 107.73 49.9041 121.608 49.9644C123.186 49.9713 124.701 50.0259 126.137 50.1284C139.851 51.1079 154.585 52.0288 162.849 61.2542C171.469 70.8763 171.612 82.209 168.963 98.4949C166.315 114.781 160.471 134.343 160.471 155.782C160.471 179.478 166.16 197.604 171.98 209.825C172.556 211.036 176.581 217.867 180.08 223.794C183.791 223.44 187.448 223.019 191.015 222.527C191.015 222.527 190.685 222.179 190.103 221.48C189.523 220.782 188.692 219.738 187.698 218.345C186.206 216.253 184.344 213.383 182.385 209.725C181.733 208.507 181.071 207.208 180.408 205.816C177.094 198.856 173.78 189.728 171.761 178.434C171.357 176.179 171.003 173.837 170.713 171.409V171.4C170.423 168.969 170.194 166.459 170.039 163.855C169.883 161.252 169.802 158.558 169.802 155.782C169.802 153.323 169.89 150.873 170.048 148.438C170.364 143.571 170.964 138.757 171.715 134.013V134.004C172.091 131.631 172.509 129.279 172.945 126.943C174.689 117.599 176.78 108.568 178.176 99.9893C178.873 95.7001 179.397 91.5252 179.615 87.4785C179.834 83.4287 179.748 79.5151 179.224 75.7422C179.093 74.7997 178.928 73.8688 178.741 72.9449C178.365 71.0943 177.882 69.2868 177.255 67.5141C177.167 67.2645 177.048 67.0241 176.955 66.776C176.385 65.2652 175.74 63.7796 174.959 62.3294C174.504 61.4831 174.016 60.6485 173.483 59.8236C172.952 59.0007 172.382 58.1917 171.77 57.3907C171.158 56.5896 170.499 55.8003 169.802 55.0216C169.104 54.2428 168.381 53.5095 167.633 52.8074C166.138 51.4032 164.544 50.1438 162.877 49.0259C162.043 48.4669 161.195 47.9419 160.325 47.4495C158.586 46.4646 156.778 45.6099 154.922 44.8708C153.991 44.5002 153.05 44.1642 152.097 43.8503C151.815 43.7572 151.525 43.6834 151.241 43.5951C149.845 43.1618 148.431 42.7803 147.004 42.4561C146.769 42.4028 146.538 42.3336 146.302 42.283H146.293C146.138 42.2499 145.983 42.2238 145.828 42.1919C143.038 41.6158 140.207 41.2214 137.39 40.9891C135.407 40.8255 133.429 40.7415 131.477 40.7157Z" fill="#64A3E5" fill-opacity="0.253286"/>
<defs>
<linearGradient id="paint0_linear_919_109" x1="173.913" y1="28.6833" x2="224.522" y2="219.125" gradientUnits="userSpaceOnUse">
<stop stop-color="#81B6ED"/>
<stop offset="1" stop-color="#1D75D2"/>
</linearGradient>
<linearGradient id="paint1_linear_919_109" x1="102.014" y1="47.3563" x2="105.042" y2="216.699" gradientUnits="userSpaceOnUse">
<stop stop-color="#FAFAFA"/>
<stop offset="1" stop-color="#E6E6E6"/>
</linearGradient>
</defs>
</svg>
