<svg width="570" height="570" viewBox="0 0 570 570" fill="none" xmlns="http://www.w3.org/2000/svg">
<g clip-path="url(#clip0_1022_15)">
<rect width="570" height="570" rx="285" fill="white"/>
<circle cx="285" cy="292" r="285" fill="#D9D9D9"/>
<g clip-path="url(#clip1_1022_15)">
<path d="M0 66.8795L31.635 61.9651C63.27 57.0139 126.54 47.1852 189.924 44.7095C253.251 42.2339 316.749 47.1852 380.076 49.6239C443.46 52.0995 506.73 52.0995 538.365 52.0995H570V0H538.365C506.73 0 443.46 0 380.076 0C316.749 0 253.251 0 189.924 0C126.54 0 63.27 0 31.635 0H0V66.8795Z" fill="#4F6EA5"/>
<path d="M0 155.56L31.635 146.95C63.27 138.304 126.54 121.085 189.924 121.085C253.251 121.085 316.749 138.304 380.076 146.95C443.46 155.56 506.73 155.56 538.365 155.56H570V51.3605H538.365C506.73 51.3605 443.46 51.3605 380.076 48.8849C316.749 46.4462 253.251 41.4949 189.924 43.9705C126.54 46.4462 63.27 56.2749 31.635 61.2262L0 66.1405V155.56Z" fill="#44659D"/>
<path d="M0 347.699L31.635 331.7C63.27 315.664 126.54 283.665 189.924 277.494C253.251 271.324 316.749 291.055 380.076 294.75C443.46 298.445 506.73 286.104 538.365 279.97L570 273.799V154.82H538.365C506.73 154.82 443.46 154.82 380.076 146.211C316.749 137.565 253.251 120.346 189.924 120.346C126.54 120.346 63.27 137.565 31.635 146.211L0 154.82V347.699Z" fill="#3A5B94"/>
<path d="M0 406.819L31.635 395.734C63.27 384.649 126.54 362.479 189.924 358.784C253.251 355.089 316.749 369.869 380.076 368.65C443.46 367.394 506.73 350.175 538.365 341.529L570 332.919V273.06L538.365 279.231C506.73 285.365 443.46 297.706 380.076 294.011C316.749 290.316 253.251 270.585 189.924 276.755C126.54 282.926 63.27 314.925 31.635 330.961L0 346.96V406.819Z" fill="#2E528C"/>
<path d="M0 428.989L31.635 420.38C63.27 411.734 126.54 394.515 189.924 395.734C253.251 396.954 316.749 416.685 380.076 414.209C443.46 411.734 506.73 387.125 538.365 374.784L570 362.479V332.18L538.365 340.79C506.73 349.436 443.46 366.655 380.076 367.911C316.749 369.13 253.251 354.35 189.924 358.045C126.54 361.74 63.27 383.91 31.635 394.995L0 406.08V428.989Z" fill="#224984"/>
<path d="M0 473.329L31.635 464.72C63.27 456.074 126.54 438.855 189.924 440.074C253.251 441.294 316.749 461.025 380.076 458.549C443.46 456.074 506.73 431.465 538.365 419.124L570 406.819V361.74L538.365 374.045C506.73 386.386 443.46 410.995 380.076 413.47C316.749 415.946 253.251 396.215 189.924 394.995C126.54 393.776 63.27 410.995 31.635 419.641L0 428.25V473.329Z" fill="#1F447B"/>
<path d="M0 525.06L31.635 515.194C63.27 505.365 126.54 485.634 189.924 484.415C253.251 483.195 316.749 500.414 380.076 495.5C443.46 490.585 506.73 463.464 538.365 449.94L570 436.38V406.081L538.365 418.385C506.73 430.726 443.46 455.335 380.076 457.811C316.749 460.286 253.251 440.555 189.924 439.336C126.54 438.116 63.27 455.335 31.635 463.981L0 472.591V525.06Z" fill="#1C3F72"/>
<path d="M0 621.129L31.635 608.825C63.27 596.484 126.54 571.875 189.924 570.619C253.251 569.399 316.749 591.569 380.076 587.874C443.46 584.179 506.73 554.619 538.365 539.839L570 525.059V435.64L538.365 449.201C506.73 462.725 443.46 489.846 380.076 494.76C316.749 499.675 253.251 482.456 189.924 483.675C126.54 484.895 63.27 504.626 31.635 514.455L0 524.32V621.129Z" fill="#193B6A"/>
<path d="M0 739.369H31.635C63.27 739.369 126.54 739.369 189.924 739.369C253.251 739.369 316.749 739.369 380.076 739.369C443.46 739.369 506.73 739.369 538.365 739.369H570V524.32L538.365 539.1C506.73 553.88 443.46 583.44 380.076 587.135C316.749 590.83 253.251 568.661 189.924 569.88C126.54 571.136 63.27 595.745 31.635 608.086L0 620.39V739.369Z" fill="#173661"/>
</g>
<path d="M467.432 394.454C484.341 373.191 477 333.075 465.257 266.313C454.469 204.982 439.996 133.724 354.537 137.674C309.344 139.763 271.743 148.048 240.462 160.49C240.462 160.49 314.275 137.674 347.827 175.126C381.378 212.578 347.827 267.422 347.827 326.562C347.827 393.324 379.701 426.876 379.701 426.876C424.699 420.671 450.913 415.226 467.432 394.454Z" fill="url(#paint0_linear_1022_15)"/>
<path d="M112.026 403.136C135.948 424.698 195.328 427.845 227.968 429.259C279.804 431.504 334.03 433.174 379.701 426.876C379.701 426.876 347.827 393.324 347.827 326.561C347.827 267.422 381.378 212.577 347.827 175.126C314.275 137.674 240.462 160.49 240.462 160.49C176.361 185.984 138.794 228.928 116.811 271.76C82.6198 338.377 88.1035 381.575 112.026 403.136Z" fill="url(#paint1_linear_1022_15)"/>
<path d="M410.062 351.765C429.425 351.765 445.121 336.069 445.121 316.707C445.121 297.344 429.425 281.648 410.062 281.648C390.7 281.648 375.004 297.344 375.004 316.707C375.004 336.069 390.7 351.765 410.062 351.765Z" fill="#192437"/>
<path d="M169.154 260.181C169.886 290.937 176.541 297.765 187.289 300.36C198.037 302.954 209.86 290.176 230.192 294.136C250.524 298.097 267.613 346.832 299.824 279.223" stroke="#192437" stroke-width="18.0352" stroke-linecap="round"/>
<path d="M290.225 153.622C287.291 153.583 284.387 153.631 281.557 153.759C278.726 153.887 275.957 154.093 273.285 154.348C267.946 154.855 262.975 155.579 258.604 156.347C255.391 156.912 252.924 157.451 250.442 158.004C244.479 159.334 240.459 160.496 240.459 160.496C228.247 165.353 217.008 170.846 206.647 176.848C226.568 172.536 254.536 167.431 275.394 167.522C277.765 167.532 280.042 167.614 282.2 167.768C302.811 169.24 324.955 170.624 337.376 184.49C350.331 198.951 350.546 215.983 346.565 240.46C342.584 264.936 333.802 294.337 333.802 326.558C333.802 362.171 342.352 389.414 351.098 407.781C351.965 409.602 358.014 419.868 363.273 428.775C368.851 428.244 374.347 427.611 379.706 426.872C379.706 426.872 379.211 426.349 378.337 425.297C377.465 424.249 376.216 422.68 374.722 420.586C372.479 417.443 369.681 413.128 366.738 407.631C365.757 405.8 364.762 403.847 363.766 401.756C358.784 391.295 353.804 377.577 350.77 360.603C350.163 357.214 349.63 353.693 349.195 350.045V350.031C348.759 346.378 348.415 342.605 348.181 338.692C347.948 334.779 347.825 330.731 347.825 326.558C347.825 322.862 347.957 319.18 348.195 315.52C348.67 308.206 349.572 300.971 350.701 293.842V293.828C351.266 290.261 351.895 286.725 352.55 283.215C355.171 269.171 358.314 255.598 360.411 242.706C361.459 236.259 362.247 229.985 362.574 223.903C362.902 217.816 362.773 211.934 361.985 206.264C361.789 204.848 361.541 203.448 361.26 202.06C360.696 199.279 359.969 196.562 359.027 193.898C358.895 193.523 358.716 193.161 358.575 192.789C357.719 190.518 356.75 188.285 355.576 186.106C354.892 184.834 354.159 183.579 353.358 182.339C352.559 181.103 351.704 179.887 350.783 178.683C349.863 177.479 348.874 176.293 347.825 175.122C346.777 173.952 345.689 172.85 344.566 171.795C342.319 169.684 339.923 167.791 337.417 166.111C336.164 165.271 334.89 164.482 333.583 163.742C330.968 162.262 328.252 160.977 325.462 159.867C324.063 159.309 322.649 158.804 321.216 158.333C320.792 158.193 320.356 158.082 319.929 157.949C317.832 157.298 315.707 156.725 313.561 156.237C313.208 156.157 312.861 156.053 312.507 155.977H312.493C312.261 155.927 312.027 155.888 311.794 155.84C307.601 154.974 303.347 154.382 299.113 154.033C296.132 153.787 293.159 153.661 290.225 153.622Z" fill="#64A3E5" fill-opacity="0.253286"/>
</g>
<defs>
<linearGradient id="paint0_linear_1022_15" x1="354.004" y1="135.538" x2="430.066" y2="421.759" gradientUnits="userSpaceOnUse">
<stop stop-color="#81B6ED"/>
<stop offset="1" stop-color="#1D75D2"/>
</linearGradient>
<linearGradient id="paint1_linear_1022_15" x1="245.946" y1="163.602" x2="250.495" y2="418.112" gradientUnits="userSpaceOnUse">
<stop stop-color="#FAFAFA"/>
<stop offset="1" stop-color="#E6E6E6"/>
</linearGradient>
<clipPath id="clip0_1022_15">
<rect width="570" height="570" rx="285" fill="white"/>
</clipPath>
<clipPath id="clip1_1022_15">
<rect width="570" height="739" fill="white"/>
</clipPath>
</defs>
</svg>
